<?xml version="1.0" standalone="no"?>
<!DOCTYPE svg PUBLIC "-//W3C//DTD SVG 20010904//EN"
 "http://www.w3.org/TR/2001/REC-SVG-20010904/DTD/svg10.dtd">
<svg version="1.0" xmlns="http://www.w3.org/2000/svg"
 width="608.000000pt" height="608.000000pt" viewBox="0 0 608.000000 608.000000"
 preserveAspectRatio="xMidYMid meet">
<metadata>
Created by potrace 1.14, written by Peter Selinger 2001-2017
</metadata>
<g transform="translate(0.000000,608.000000) scale(0.100000,-0.100000)"
fill="#000000" stroke="none">
<path d="M0 3040 l0 -3040 3040 0 3040 0 0 3040 0 3040 -3040 0 -3040 0 0
-3040z m3824 537 c229 -109 350 -361 302 -627 -21 -119 -72 -218 -155 -301
-112 -112 -233 -157 -391 -146 -70 5 -97 13 -159 43 -184 91 -301 290 -301
512 0 181 87 367 215 462 105 77 183 101 322 96 81 -3 100 -7 167 -39z m-2550
12 c9 -8 13 -64 35 -519 7 -124 16 -287 20 -362 5 -75 7 -146 4 -157 -10 -38
-162 -44 -177 -6 -2 7 -10 116 -16 242 -16 341 -19 373 -36 373 -9 0 -24 -21
-36 -47 -11 -27 -51 -118 -88 -203 -38 -85 -76 -175 -86 -200 -22 -57 -38 -70
-89 -70 -55 0 -64 12 -118 145 -51 124 -125 294 -151 343 -34 66 -40 39 -59
-274 -9 -164 -21 -306 -25 -313 -10 -17 -138 -26 -161 -12 -17 11 -17 90 -2
296 5 77 13 210 16 295 8 224 27 453 38 468 7 9 35 12 95 10 l85 -3 59 -140
c53 -125 105 -246 185 -427 14 -32 31 -58 38 -58 14 0 56 89 153 320 38 91 85
197 104 235 30 63 37 70 68 75 44 7 132 0 144 -11z m728 3 c4 -4 45 -140 92
-302 46 -162 112 -389 145 -505 34 -115 61 -218 61 -227 0 -10 -9 -22 -19 -28
-28 -14 -138 -13 -148 2 -4 7 -22 55 -38 108 l-31 95 -187 3 c-215 3 -187 17
-227 -113 -11 -39 -24 -76 -28 -83 -8 -11 -135 -23 -159 -14 -7 2 -13 11 -13
20 0 16 82 314 158 572 25 85 66 227 91 315 l47 160 64 6 c71 7 181 2 192 -9z
m3809 -4 c5 -7 9 -41 9 -75 0 -96 8 -93 -260 -93 -172 0 -231 -3 -237 -12 -4
-7 -6 -76 -5 -153 2 -117 5 -142 19 -152 12 -9 63 -13 170 -13 l153 0 10 -26
c13 -32 13 -114 0 -134 -7 -12 -41 -16 -172 -18 -90 -2 -167 -8 -173 -13 -6
-6 -9 -74 -7 -174 4 -155 3 -164 -17 -184 -29 -29 -122 -30 -151 -1 -20 20
-20 32 -20 516 1 273 5 507 10 520 l9 24 228 2 c346 4 424 2 434 -14z m-3217
-4 c3 -9 6 -201 6 -428 0 -314 3 -416 13 -428 10 -14 45 -17 235 -22 156 -3
228 -8 238 -17 11 -9 14 -29 12 -78 -3 -58 -6 -67 -28 -78 -19 -10 -98 -12
-328 -11 -283 3 -305 4 -317 22 -11 15 -13 112 -12 525 1 278 6 512 10 519 5
8 35 12 87 12 62 0 79 -3 84 -16z m2467 -964 c11 -17 8 -145 -5 -157 -4 -4
-184 -8 -399 -8 l-392 0 -9 62 c-10 72 -3 110 22 116 9 3 187 4 395 4 323 -2
379 -4 388 -17z m-3482 -509 c11 -7 14 -25 12 -61 l-3 -52 39 6 c125 18 133
19 133 3 0 -16 -20 -22 -112 -33 l-58 -6 0 -50 0 -50 33 5 c118 20 119 20 115
1 -2 -15 -17 -21 -76 -28 l-73 -9 3 -60 c2 -41 8 -62 18 -67 86 -38 156 -79
158 -93 5 -26 -20 -21 -84 18 -65 39 -87 41 -92 8 -6 -41 -48 -63 -119 -63
-55 0 -67 4 -88 25 -30 29 -31 45 -4 78 24 31 89 51 136 42 l34 -6 -3 58 -3
58 -77 3 c-60 2 -78 6 -78 17 0 12 17 15 81 15 l80 0 -3 48 -3 47 -89 5 c-59
3 -91 9 -94 18 -3 9 20 12 93 12 l96 0 -1 53 c-2 75 -1 77 29 58z m2081 -17
c77 -25 98 -45 54 -52 -33 -5 -148 41 -152 61 -4 22 2 22 98 -9z m-1192 -19
c-2 -8 -43 -57 -91 -110 -49 -52 -85 -95 -80 -95 4 0 28 7 53 16 83 29 191 -1
218 -61 26 -56 10 -126 -40 -172 -33 -31 -109 -63 -168 -70 -42 -5 -50 -3 -50
11 0 9 7 16 17 16 39 0 127 36 163 67 44 38 60 88 42 128 -42 93 -214 70 -344
-45 -46 -40 -68 -50 -68 -29 0 6 48 61 106 122 59 62 124 133 146 160 47 55
44 56 -77 31 -79 -16 -105 -14 -105 9 0 9 30 17 103 26 56 7 111 17 122 21 25
9 57 -6 53 -25z m2027 -20 c46 -27 55 -42 32 -50 -15 -7 -147 63 -147 77 0 17
65 2 115 -27z m-810 -195 c-63 -63 -75 -80 -58 -80 34 0 62 -31 81 -89 20 -65
42 -75 140 -65 58 5 64 4 60 -13 -3 -15 -15 -18 -82 -21 -44 -2 -92 2 -107 8
-26 11 -49 46 -49 75 0 26 -23 65 -41 70 -28 9 -71 -18 -132 -84 -31 -34 -60
-61 -66 -61 -32 0 -15 31 55 104 167 172 198 206 192 211 -3 3 -51 -3 -107
-15 -102 -21 -121 -20 -121 4 0 9 29 17 88 25 48 7 112 18 142 25 46 11 58 10
70 -1 12 -11 4 -24 -65 -93z m758 73 c4 -3 1 -13 -7 -22 -36 -41 -30 -58 38
-124 59 -57 66 -68 66 -102 0 -60 -29 -85 -101 -85 -70 0 -89 7 -89 31 0 16 4
17 26 9 62 -24 124 -4 124 41 0 11 -27 49 -60 84 -48 52 -60 71 -60 98 0 51
39 95 63 70z m245 -162 c33 -44 42 -81 18 -81 -8 0 -28 23 -46 50 -18 28 -39
54 -48 59 -9 5 -13 15 -8 26 6 16 9 16 29 3 12 -8 37 -34 55 -57z m-493 -61
c3 -11 16 -25 27 -31 17 -9 25 -6 48 16 26 25 50 27 50 4 0 -24 -50 -59 -84
-59 -38 0 -76 36 -76 71 0 25 27 24 35 -1z m-1035 -95 c0 -13 -24 -15 -160
-15 -136 0 -160 2 -160 15 0 13 24 15 160 15 136 0 160 -2 160 -15z"/>
<path d="M3620 3540 c0 -5 5 -10 10 -10 6 0 10 5 10 10 0 6 -4 10 -10 10 -5 0
-10 -4 -10 -10z"/>
<path d="M3680 3530 c0 -13 7 -20 20 -20 11 0 20 4 20 10 0 5 -9 14 -20 20
-17 9 -20 8 -20 -10z"/>
<path d="M3551 3424 c-120 -43 -197 -130 -232 -264 -47 -181 39 -374 199 -448
115 -53 233 -24 327 81 77 85 99 146 100 272 0 93 -2 105 -32 166 -18 37 -51
85 -74 109 -77 79 -202 115 -288 84z"/>
<path d="M3315 3360 c-3 -5 -1 -10 4 -10 6 0 11 5 11 10 0 6 -2 10 -4 10 -3 0
-8 -4 -11 -10z"/>
<path d="M4045 3151 c-3 -5 -1 -12 5 -16 5 -3 10 1 10 9 0 18 -6 21 -15 7z"/>
<path d="M3210 2968 c0 -18 18 -34 28 -24 3 4 -2 14 -11 23 -16 16 -17 16 -17
1z"/>
<path d="M3950 2770 c0 -5 4 -10 9 -10 6 0 13 5 16 10 3 6 -1 10 -9 10 -9 0
-16 -4 -16 -10z"/>
<path d="M3530 2610 c0 -5 5 -10 10 -10 6 0 10 5 10 10 0 6 -4 10 -10 10 -5 0
-10 -4 -10 -10z"/>
<path d="M1133 3460 c1 -11 4 -20 8 -20 10 0 19 27 12 34 -12 12 -22 5 -20
-14z"/>
<path d="M465 3390 c3 -5 8 -10 11 -10 2 0 4 5 4 10 0 6 -5 10 -11 10 -5 0 -7
-4 -4 -10z"/>
<path d="M1100 3380 c0 -5 11 -10 25 -10 14 0 25 5 25 10 0 6 -11 10 -25 10
-14 0 -25 -4 -25 -10z"/>
<path d="M1191 3363 c4 -22 -3 -32 -16 -27 -8 4 -15 2 -15 -3 0 -20 14 -22 32
-6 19 17 24 43 8 43 -5 0 -9 -3 -9 -7z"/>
<path d="M550 3251 c0 -6 5 -13 10 -16 6 -3 10 1 10 9 0 9 -4 16 -10 16 -5 0
-10 -4 -10 -9z"/>
<path d="M1190 3210 c0 -13 18 -22 24 -11 3 5 -1 11 -9 15 -8 3 -15 1 -15 -4z"/>
<path d="M985 3169 c-4 -6 -5 -13 -2 -16 7 -7 27 6 27 18 0 12 -17 12 -25 -2z"/>
<path d="M390 3029 c0 -5 5 -7 10 -4 6 3 10 8 10 11 0 2 -4 4 -10 4 -5 0 -10
-5 -10 -11z"/>
<path d="M890 2950 c0 -5 7 -10 15 -10 8 0 15 5 15 10 0 6 -7 10 -15 10 -8 0
-15 -4 -15 -10z"/>
<path d="M700 2940 c0 -5 5 -10 11 -10 5 0 7 5 4 10 -3 6 -8 10 -11 10 -2 0
-4 -4 -4 -10z"/>
<path d="M845 2859 c-4 -6 -5 -12 -2 -15 2 -3 7 2 10 11 7 17 1 20 -8 4z"/>
<path d="M366 2761 c-4 -7 -5 -15 -2 -18 9 -9 19 4 14 18 -4 11 -6 11 -12 0z"/>
<path d="M1865 3490 c-3 -5 -1 -10 4 -10 6 0 11 5 11 10 0 6 -2 10 -4 10 -3 0
-8 -4 -11 -10z"/>
<path d="M1857 3443 c-4 -3 -7 -11 -7 -17 0 -6 5 -5 12 2 6 6 9 14 7 17 -3 3
-9 2 -12 -2z"/>
<path d="M1855 3338 c-20 -61 -105 -372 -105 -388 0 -19 7 -20 124 -20 69 0
127 4 130 8 2 4 -18 82 -45 172 -28 91 -53 181 -57 200 -8 35 -38 54 -47 28z"/>
<path d="M1655 3031 c-3 -5 -1 -12 5 -16 5 -3 10 1 10 9 0 18 -6 21 -15 7z"/>
<path d="M2075 3010 c3 -5 8 -10 11 -10 2 0 4 5 4 10 0 6 -5 10 -11 10 -5 0
-7 -4 -4 -10z"/>
<path d="M2095 2980 c3 -5 8 -10 11 -10 2 0 4 5 4 10 0 6 -5 10 -11 10 -5 0
-7 -4 -4 -10z"/>
<path d="M2070 2950 c0 -5 5 -10 10 -10 6 0 10 5 10 10 0 6 -4 10 -10 10 -5 0
-10 -4 -10 -10z"/>
<path d="M1992 2831 c4 -13 18 -16 19 -4 0 4 -5 9 -11 12 -7 2 -11 -2 -8 -8z"/>
<path d="M1580 2720 c0 -5 5 -10 10 -10 6 0 10 5 10 10 0 6 -4 10 -10 10 -5 0
-10 -4 -10 -10z"/>
<path d="M1560 2671 c0 -5 5 -13 10 -16 6 -3 10 -2 10 4 0 5 -4 13 -10 16 -5
3 -10 2 -10 -4z"/>
<path d="M1545 2610 c-3 -5 -1 -10 4 -10 6 0 11 5 11 10 0 6 -2 10 -4 10 -3 0
-8 -4 -11 -10z"/>
<path d="M5292 3518 c-7 -7 -12 -16 -12 -20 0 -12 28 -10 36 3 10 17 -10 31
-24 17z"/>
<path d="M5695 3510 c-3 -5 -1 -10 4 -10 6 0 11 5 11 10 0 6 -2 10 -4 10 -3 0
-8 -4 -11 -10z"/>
<path d="M5355 3020 c-3 -5 1 -10 9 -10 8 0 18 5 21 10 3 6 -1 10 -9 10 -8 0
-18 -4 -21 -10z"/>
<path d="M5209 2933 c4 -15 14 -29 22 -31 12 -5 12 -3 0 11 -7 9 -11 24 -7 32
3 9 0 15 -8 15 -11 0 -12 -7 -7 -27z"/>
<path d="M2502 3349 c2 -7 10 -15 17 -17 8 -3 12 1 9 9 -2 7 -10 15 -17 17 -8
3 -12 -1 -9 -9z"/>
<path d="M2500 3099 c0 -18 2 -19 15 -9 15 12 12 30 -6 30 -5 0 -9 -10 -9 -21z"/>
<path d="M2574 2626 c-8 -22 3 -33 18 -18 9 9 9 15 0 24 -9 9 -13 7 -18 -6z"/>
<path d="M2810 2635 c0 -15 18 -40 24 -34 3 3 -1 14 -9 25 -8 10 -14 15 -15 9z"/>
<path d="M2920 2621 c0 -5 5 -13 10 -16 6 -3 10 -2 10 4 0 5 -4 13 -10 16 -5
3 -10 2 -10 -4z"/>
<path d="M2750 2600 c0 -5 5 -10 10 -10 6 0 10 5 10 10 0 6 -4 10 -10 10 -5 0
-10 -4 -10 -10z"/>
<path d="M2870 2600 c0 -5 5 -10 11 -10 5 0 7 5 4 10 -3 6 -8 10 -11 10 -2 0
-4 -4 -4 -10z"/>
<path d="M4600 2545 c0 -8 4 -15 10 -15 5 0 7 7 4 15 -4 8 -8 15 -10 15 -2 0
-4 -7 -4 -15z"/>
<path d="M4705 2540 c-3 -5 1 -10 10 -10 9 0 13 5 10 10 -3 6 -8 10 -10 10 -2
0 -7 -4 -10 -10z"/>
<path d="M1440 1687 c-67 -23 -44 -77 33 -77 54 0 77 15 77 50 0 22 -5 30 -17
30 -10 0 -27 2 -38 5 -11 2 -36 -1 -55 -8z"/>
</g>
</svg>
